# xmcd
#
# Track frame offsets:
#	150
#	15925
#	28148
#	44911
#	59121
#	74831
#	89694
#	105507
#	119545
#	132735
#	148143
#	166173
#	178791
#	194551
#	208184
#	221722
#	234917
#	246992
#	263487
#	279492
#	293417
#	308897
#
# Disc length: 4252 seconds
#
# Revision: 1
# Processed by: cddbd v1.5.2PL0 Copyright (c) Steve Scherf et al.
# Submitted via: audiograbber 1.83.01
#
DISCID=65109a16
DTITLE=Various Artist - Halland's Country Hits Volume 1
DYEAR=1900
DGENRE=
TTITLE0=Doug Supernaw - Reno
TTITLE1=Sweethearts Of The Rodeo - Since I Found You
TTITLE2=Pam Tillis - Do You Know Where Your Man Is
TTITLE3=Pam Tillis - Don't Tell Me What To Do
TTITLE4=Pam Tillis - Let That Pony Run
TTITLE5=Pam Tillis - Maybe It Was Memphis
TTITLE6=Pam Tillis - One Of Those Things
TTITLE7=Pam Tillis - Shake The Sugar Tree
TTITLE8=Aaron Tippin - I Wouldn't Have It Any Other Way
TTITLE9=Aaron Tippin - My Blue Angel
TTITLE10=Aaron Tippin - The Call Of The Wild
TTITLE11=Aaron Tippin - There Ain't Nothin' Wrong...Radio
TTITLE12=Aaron Tippin - Working Man's PD.D.
TTITLE13=Aaron Tippin - You've Got To Stand For Something
TTITLE14=Randy Travis - 1982
TTITLE15=Randy Travis - An Old Pair Of Shoes
TTITLE16=Randy Travis - Better Class Of Losers
TTITLE17=Randy Travis - Deeper Than The Holler
TTITLE18=Randy Travis - Forever And Ever, Amen
TTITLE19=Randy Travis - Forever Together
TTITLE20=Randy Travis - He Walked On Water
TTITLE21=Randy Travis - Heroes And Friends
EXTD=
EXTT0=
EXTT1=
EXTT2=
EXTT3=
EXTT4=
EXTT5=
EXTT6=
EXTT7=
EXTT8=
EXTT9=
EXTT10=
EXTT11=
EXTT12=
EXTT13=
EXTT14=
EXTT15=
EXTT16=
EXTT17=
EXTT18=
EXTT19=
EXTT20=
EXTT21=
PLAYORDER=
